# xmcd
#
# Track frame offsets: 
#        150
#        16352
#        34710
#        51535
#        73285
#        91300
#        107707
#        123712
#        145667
#        163747
#        182157
#        205582
#        221475
#        239982
#        256230
#        274460
#        292642
#        309542
#
# Disc length: 4340 seconds
#
# Revision: 5
# Processed by: cddbd v1.5.2PL0 Copyright (c) Steve Scherf et al.
# Submitted via: ExactAudioCopy v0.99pb5
#
DISCID=0610f212,1810f212
DTITLE=Various Artist - Die schönsten deutschen Schlager der 80er - CD 1
DYEAR=1998
DGENRE=Schlager
TTITLE0=Roger Whittaker - Wenn es dich noch gibt
TTITLE1=Roger Whittaker - Tanz heut nacht mit mir
TTITLE2=Roger Whittaker - Leben mit dir
TTITLE3=Roger Whittaker - Fernweh
TTITLE4=Roger Whittaker - Ein bißchen Aroma
TTITLE5=Howard Carpendale - Hello Again
TTITLE6=Howard Carpendale - Wie frei willst du sein?
TTITLE7=Howard Carpendale - Nachts, wenn alles schläft
TTITLE8=Howard Carpendale - Laura Jane
TTITLE9=Howard Carpendale - Shine On (Der Regen von New York)
TTITLE10=Howard Carpendale - Wem
TTITLE11=Mireille Mathieu - Nur für dich
TTITLE12=Mireille Mathieu - Für Liebe ist es nie zu spät
TTITLE13=Mireille Mathieu - Nie war mein Herz dabei (ohne dich)
TTITLE14=Mireille Mathieu - So wie du bist
TTITLE15=Karel Gott - Eine Liebe ist viele Tränen wert
TTITLE16=Karel Gott - Wenn ich dich nicht hätte
TTITLE17=Karel Gott und Darinka - Fang das Licht
EXTD=
EXTT0=
EXTT1=
EXTT2=
EXTT3=
EXTT4=
EXTT5=
EXTT6=
EXTT7=
EXTT8=
EXTT9=
EXTT10=
EXTT11=
EXTT12=
EXTT13=
EXTT14=
EXTT15=
EXTT16=
EXTT17=
PLAYORDER=
